<svg width="143" height="20" viewBox="0 0 143 20" fill="none" xmlns="http://www.w3.org/2000/svg">
<g clip-path="url(#clip0_65_520)">
<path d="M1.62702 6.14359H4.16939L4.76261 3.34698L8.5338 2.11816L7.68634 6.14359H10.8219L10.2711 8.72833H7.13549L5.86431 14.6182C5.77956 14.9148 5.69482 15.4232 5.69482 15.9317C5.69482 16.7368 6.24566 17.2453 7.05075 17.2453C7.68634 17.2453 8.32193 17.1182 8.74566 16.9487L8.15244 19.6605C7.55922 19.7877 6.88126 19.9571 6.24566 19.9571C3.87278 19.9571 2.17787 19.0249 2.17787 16.4402C2.17787 15.3809 2.38973 14.3639 2.64397 13.3046L3.61854 8.72833H1.07617L1.62702 6.14359Z" fill="white" fill-opacity="0.8"/>
<path d="M92.6433 17.5846H92.6009C91.4145 19.11 90.1857 19.9574 88.2365 19.9574C85.8213 19.9574 84.084 18.6015 84.084 16.1015C84.084 11.6524 89.0416 11.3134 92.3467 11.3134H93.5755C93.6603 10.932 93.6603 10.5507 93.6603 10.1693C93.6603 8.81338 92.1772 8.43202 90.9484 8.43202C89.423 8.43202 87.8975 8.81338 86.4992 9.49134L87.0077 6.69473C88.4908 6.18626 90.0162 5.88965 91.584 5.88965C94.2959 5.88965 96.8382 6.86423 96.8382 10.0422C96.8382 11.8642 95.4823 17.1608 95.1857 19.7032H92.2196L92.6433 17.5846ZM89.2111 17.4151C91.8382 17.4151 92.6433 15.593 93.1942 13.432H91.9653C90.2704 13.432 87.4314 13.7286 87.4314 16.0168C87.4314 16.9066 88.3213 17.4151 89.2111 17.4151Z" fill="white" fill-opacity="0.8"/>
<path d="M12.2622 6.14395H15.7792L12.8978 19.6185H9.38086L12.2622 6.14395ZM13.5334 0.338867H17.0504L16.33 3.68632H12.8131L13.5334 0.338867Z" fill="white" fill-opacity="0.8"/>
<path d="M26.3719 9.23711C25.694 8.771 24.7618 8.55914 23.7872 8.55914C20.9906 8.55914 19.4228 11.1863 19.4228 13.7286C19.4228 15.4659 20.016 17.2456 22.3889 17.2456C23.2363 17.2456 24.338 16.9913 25.2279 16.5676L24.8465 19.3642C23.7872 19.8727 22.6007 19.9998 21.4567 19.9998C17.9821 19.9998 15.7363 17.6693 15.7363 14.1947C15.7363 9.49134 18.8719 5.88965 23.7024 5.88965C25.016 5.88965 26.2872 6.14389 27.2194 6.39812L26.3719 9.23711Z" fill="white" fill-opacity="0.8"/>
<path d="M30.2287 0H33.7457L31.4152 11.0593H31.4575L36.3728 6.14407H40.9067L34.466 12.2881L38.4914 19.661H34.5507L31.0762 12.5H31.0338L29.5084 19.661H26.0762L30.2287 0Z" fill="white" fill-opacity="0.8"/>
<path d="M53.5762 6.14359H56.1186L56.7118 3.34698L60.483 2.11816L59.6356 6.14359H62.7712L62.2203 8.72833H59.0847L57.8135 14.6182C57.7288 14.9148 57.644 15.4232 57.644 15.9317C57.644 16.7368 58.1949 17.2453 59 17.2453C59.6356 17.2453 60.2712 17.1182 60.6949 16.9487L60.1017 19.6605C59.5084 19.7877 58.8305 19.9571 58.1949 19.9571C55.822 19.9571 54.1271 19.0249 54.1271 16.4402C54.1271 15.3809 54.339 14.3639 54.5932 13.3046L55.5678 8.72833H53.0254L53.5762 6.14359Z" fill="white" fill-opacity="0.8"/>
<path d="M52.3889 10.9748C52.3889 7.54257 50.1855 5.84766 46.8804 5.84766C42.4313 5.84766 39.2109 9.87308 39.2109 14.068C39.2109 18.0934 41.8381 19.9578 45.694 19.9578C47.1347 19.9578 48.6177 19.6188 49.9736 19.1951L50.4398 16.3985C49.1262 16.9917 47.7279 17.3731 46.2872 17.3731C44.0414 17.3731 42.7279 16.568 42.5584 14.4494C42.5584 14.3222 42.5584 14.1951 42.5584 14.068C42.5584 14.0256 42.5584 14.0256 42.5584 13.9832V13.9409C42.5584 13.0087 42.7703 12.1188 43.1092 11.2714C43.7872 9.5341 44.7194 8.34766 46.7957 8.34766C48.2787 8.34766 49.0414 9.15274 49.0414 10.5934C49.0414 10.89 48.9991 11.1866 48.9567 11.5256H44.1686C43.872 12.5849 43.7872 13.3053 43.7872 13.9409H52.0499C52.2618 12.9663 52.3889 11.9917 52.3889 10.9748Z" fill="white" fill-opacity="0.8"/>
<path d="M64.2965 7.62732C64.3812 7.11884 64.5084 6.568 64.5931 6.14427H67.8558L67.5592 7.9663H67.6016C68.5338 6.56799 70.1016 5.84766 71.7541 5.84766C73.3643 5.84766 75.0168 6.77986 75.1863 8.4324H75.2287C76.1185 6.69511 78.0677 5.84766 79.9745 5.84766C82.0084 5.84766 83.7033 7.5002 83.7033 9.5341C83.7033 10.7205 83.4067 12.1188 83.1101 13.2205L81.7118 19.6612H78.1948L79.5931 13.0934C79.7626 12.2883 80.0592 11.0171 80.0592 10.2121C80.0592 9.23749 79.2965 8.60189 78.4067 8.60189C75.949 8.60189 75.3558 11.4409 74.9321 13.2629L73.5338 19.6612H70.0168L71.4151 13.0934C71.5846 12.2883 71.8812 11.0171 71.8812 10.2121C71.8812 9.23749 71.1185 8.60189 70.2287 8.60189C67.8558 8.60189 67.1779 11.4409 66.7541 13.2629L65.3558 19.6612H61.8389L64.2965 7.62732Z" fill="white" fill-opacity="0.8"/>
<path d="M107.304 8.89812C106.923 8.68626 105.948 8.38965 104.974 8.38965C103.915 8.38965 102.601 8.68626 102.601 9.74558C102.601 11.4405 107.177 12.0761 107.177 15.3812C107.177 18.8981 104.126 19.9574 101.118 19.9574C99.7197 19.9574 98.279 19.7456 97.0078 19.1524L97.7705 16.3558C98.7451 16.9066 99.7621 17.4151 101.118 17.4151C102.304 17.4151 103.533 17.0337 103.533 15.932C103.533 13.771 98.957 13.5591 98.957 10.1693C98.957 6.99134 102.008 5.88965 104.804 5.88965C106.076 5.88965 107.389 6.14389 108.11 6.31338L107.304 8.89812Z" fill="white" fill-opacity="0.8"/>
<path d="M109.55 6.14359H112.092L112.685 3.34698L116.457 2.11816L115.609 6.14359H118.745L118.194 8.72833H115.058L113.787 14.6182C113.702 14.9148 113.618 15.4232 113.618 15.9317C113.618 16.7368 114.169 17.2453 114.974 17.2453C115.609 17.2453 116.245 17.1182 116.669 16.9487L116.075 19.6605C115.482 19.7877 114.804 19.9571 114.169 19.9571C111.796 19.9571 110.101 19.0249 110.101 16.4402C110.101 15.3809 110.313 14.3639 110.524 13.3046L111.541 8.72833H108.999L109.55 6.14359Z" fill="white" fill-opacity="0.8"/>
<path d="M133.364 7.9663C133.449 7.37308 133.576 6.77986 133.66 6.14427H137.008L136.542 8.68664H136.584C137.22 7.20359 138.957 5.84766 140.567 5.84766C141.033 5.84766 141.499 5.89003 141.923 5.97477L141.203 9.40698C140.822 9.27986 140.313 9.19511 139.847 9.19511C137.347 9.19511 136.16 11.4409 135.694 13.6019L134.423 19.6612H130.906L133.364 7.9663Z" fill="white" fill-opacity="0.8"/>
<path d="M130.948 10.9748C130.948 7.54257 128.745 5.84766 125.44 5.84766C121.033 5.84766 117.771 9.87308 117.771 14.068C117.771 18.0934 120.398 19.9578 124.254 19.9578C125.694 19.9578 127.177 19.6188 128.533 19.1951L128.999 16.3985C127.686 16.9917 126.287 17.3731 124.847 17.3731C122.601 17.3731 121.287 16.568 121.118 14.4494C121.118 14.3222 121.118 14.1951 121.118 14.068C121.118 14.0256 121.118 14.0256 121.118 13.9832V13.9409C121.118 13.0087 121.33 12.1188 121.669 11.2714C122.347 9.5341 123.279 8.34766 125.355 8.34766C126.838 8.34766 127.601 9.15274 127.601 10.5934C127.601 10.89 127.559 11.1866 127.516 11.5256H122.728C122.432 12.5849 122.347 13.3053 122.347 13.9409H130.609C130.821 12.9663 130.948 11.9917 130.948 10.9748Z" fill="white" fill-opacity="0.8"/>
</g>
<defs>
<clipPath id="clip0_65_520">
<rect width="143" height="20" fill="white"/>
</clipPath>
</defs>
</svg>
