<svg width="115" height="29" viewBox="0 0 115 29" fill="none" xmlns="http://www.w3.org/2000/svg">
<g clip-path="url(#clip0_65_507)">
<path d="M109.907 5.7168L115 14.4997L109.907 23.2825H100.543C100.132 23.2825 99.968 22.8682 100.132 22.5368L109.907 5.7168Z" fill="#898989"/>
<path d="M100.132 6.46251L103.747 12.7597L109.908 5.7168H100.543C100.132 5.7168 99.8861 6.13108 100.132 6.46251Z" fill="#6F6F6F"/>
<path d="M109.907 5.7168L103.746 12.7597L104.814 14.4997L109.907 5.7168Z" fill="white" fill-opacity="0.8"/>
<path d="M19.1389 5.7168H16.7567C16.5925 5.7168 16.346 5.88251 16.346 6.04823L12.1567 22.7854C12.0746 23.0339 12.321 23.2825 12.5675 23.2825H14.8675C15.1139 23.2825 15.2782 23.1168 15.2782 22.9511L15.8532 20.4654C15.8532 20.2997 16.0175 20.2168 16.1817 20.2168H19.6317C19.796 20.2168 19.9603 20.2997 19.9603 20.4654L20.5353 22.9511C20.6175 23.1997 20.7817 23.2825 20.946 23.2825H23.1639C23.4103 23.2825 23.6567 23.0339 23.5746 22.7854L19.4675 6.04823C19.4675 5.79965 19.3032 5.7168 19.1389 5.7168ZM16.5103 17.0682L17.9067 10.2739H17.9889L19.3032 17.0682C19.3032 17.2339 19.221 17.3997 19.0567 17.3997H16.6746C16.5925 17.3997 16.5103 17.2339 16.5103 17.0682Z" fill="white" fill-opacity="0.8"/>
<path d="M25.957 22.8682V6.13108C25.957 5.88251 26.1213 5.7168 26.3677 5.7168H28.4213C28.5856 5.7168 28.7499 5.79965 28.832 5.96537L32.0356 13.0082H32.1177L35.3213 5.96537C35.4035 5.79965 35.5677 5.7168 35.732 5.7168H37.7856C38.032 5.7168 38.1963 5.88251 38.1963 6.13108V22.8682C38.1963 23.1168 38.032 23.2825 37.7856 23.2825H35.4856C35.2392 23.2825 35.0749 23.1168 35.0749 22.8682V13.0911H34.9927L33.1856 16.8197C33.1035 16.9854 32.9392 17.0682 32.7749 17.0682H31.4606C31.2963 17.0682 31.132 16.9854 31.0499 16.8197L29.0785 13.0911H28.9963V22.8682C28.9963 23.1168 28.832 23.2825 28.5856 23.2825H26.4499C26.1213 23.2825 25.957 23.1168 25.957 22.8682Z" fill="white" fill-opacity="0.8"/>
<path d="M71.3818 22.8682V6.13108C71.3818 5.88251 71.5461 5.7168 71.7926 5.7168H73.9283C74.0925 5.7168 74.2568 5.79965 74.339 5.96537L77.6247 13.0082H77.7068L80.8283 6.04823C80.9104 5.88251 81.0747 5.79965 81.239 5.79965H83.2926C83.539 5.79965 83.7033 5.96537 83.7033 6.21394V22.9511C83.7033 23.1997 83.539 23.3654 83.2926 23.3654H80.9925C80.7461 23.3654 80.5818 23.1997 80.5818 22.9511V13.0911H80.4997L78.6926 16.8197C78.6104 16.9854 78.4461 17.0682 78.2818 17.0682H76.9675C76.8033 17.0682 76.639 16.9854 76.5568 16.8197L74.6676 13.0911H74.5854V22.8682C74.5854 23.1168 74.4211 23.2825 74.1747 23.2825H72.039C71.6283 23.2825 71.3818 23.1168 71.3818 22.8682Z" fill="white" fill-opacity="0.8"/>
<path d="M68.1787 23.2825H65.7144C65.468 23.2825 65.3037 23.1168 65.3037 22.8682V6.13108C65.3037 5.88251 65.468 5.7168 65.7144 5.7168H68.1787C68.4251 5.7168 68.5894 5.88251 68.5894 6.13108V22.8682C68.5894 23.1168 68.343 23.2825 68.1787 23.2825Z" fill="white" fill-opacity="0.8"/>
<path d="M62.6749 6.13108C62.6749 5.88251 62.5106 5.7168 62.2641 5.7168H52.982C52.7356 5.7168 52.5713 5.88251 52.5713 6.13108V8.20251C52.5713 8.45108 52.7356 8.69965 52.982 8.69965H55.6927C55.857 8.69965 55.9391 8.78251 55.9391 8.94823V22.9511C55.9391 23.1997 56.1034 23.2825 56.2677 23.2825H58.8141C59.0606 23.2825 59.1427 23.1168 59.1427 22.9511V8.86537C59.1427 8.69965 59.2249 8.6168 59.3891 8.6168H62.0999C62.3463 8.6168 62.5106 8.45108 62.5106 8.20251L62.6749 6.13108Z" fill="white" fill-opacity="0.8"/>
<path d="M44.357 20.1339V16.0739C44.357 15.9082 44.4391 15.8254 44.6034 15.8254H49.2856C49.532 15.8254 49.6141 15.6597 49.6141 15.4939V13.3397C49.6141 13.0911 49.4499 13.0082 49.2856 13.0082H44.6034C44.4391 12.9254 44.357 12.8425 44.357 12.6768V8.86537C44.357 8.69965 44.4391 8.6168 44.6034 8.6168H49.9427C50.1891 8.6168 50.2713 8.45108 50.2713 8.28537V6.04823C50.2713 5.79965 50.107 5.7168 49.9427 5.7168H41.3999C41.1534 5.7168 41.0713 5.88251 41.0713 6.04823V22.8682C41.0713 23.1168 41.2356 23.1997 41.3999 23.1997H50.1891C50.4356 23.1997 50.5177 23.0339 50.5177 22.8682V20.7139C50.5177 20.4654 50.3534 20.3825 50.1891 20.3825H44.5213C44.4391 20.3825 44.357 20.2168 44.357 20.1339Z" fill="white" fill-opacity="0.8"/>
<path d="M89.7817 20.1339V16.0739C89.7817 15.9082 89.8638 15.8254 90.0281 15.8254H94.6281C94.8746 15.8254 95.0388 15.6597 95.0388 15.4111V13.4225C95.0388 13.1739 94.8746 13.0082 94.6281 13.0082H90.0281C89.8638 13.0082 89.7817 12.9254 89.7817 12.7597V8.86537C89.7817 8.69965 89.8638 8.6168 90.0281 8.6168H95.3674C95.6138 8.6168 95.7781 8.45108 95.7781 8.20251V6.13108C95.7781 5.88251 95.6138 5.7168 95.3674 5.7168H86.9888C86.7424 5.7168 86.5781 5.88251 86.5781 6.13108V22.8682C86.5781 23.1168 86.7424 23.2825 86.9888 23.2825H95.6138C95.8603 23.2825 96.0246 23.1168 96.0246 22.8682V20.7968C96.0246 20.5482 95.8603 20.3825 95.6138 20.3825H90.0281C89.8638 20.3825 89.7817 20.2168 89.7817 20.1339Z" fill="white" fill-opacity="0.8"/>
<path d="M5.58571 14.3343V16.0743C5.58571 16.3229 5.75 16.4886 5.99643 16.4886H7.31071C7.475 16.4886 7.55714 16.5715 7.55714 16.7372V18.6429C7.55714 19.72 6.65357 20.6315 5.58571 20.6315H5.33929C4.27143 20.6315 3.36786 19.72 3.36786 18.6429V17.3172V16.5715V10.2743C3.36786 9.19717 4.27143 8.3686 5.33929 8.3686H5.58571C6.73571 8.3686 7.475 9.19717 7.475 10.1915V10.3572C7.475 10.6057 7.63929 10.7715 7.88572 10.7715H10.1857C10.4321 10.7715 10.5964 10.6057 10.5964 10.3572V9.94289C10.5964 7.45717 8.70714 5.38574 5.50357 5.38574H5.33929C2.21786 5.38574 0 7.54003 0 10.1915V18.7257C0 21.3772 2.21786 23.6143 5.33929 23.6143H5.58571C8.78929 23.6143 10.6786 21.46 10.6786 18.7257V14.3343C10.6786 14.0857 10.5143 13.92 10.2679 13.92H5.99643C5.75 13.92 5.58571 14.0857 5.58571 14.3343Z" fill="white" fill-opacity="0.8"/>
</g>
<defs>
<clipPath id="clip0_65_507">
<rect width="115" height="29" fill="white"/>
</clipPath>
</defs>
</svg>
