<svg width="146" height="24" viewBox="0 0 146 24" fill="none" xmlns="http://www.w3.org/2000/svg">
<path fill-rule="evenodd" clip-rule="evenodd" d="M20.8225 14.0381C21.2388 13.6266 21.5356 13.1076 21.6804 12.5376L27.7729 18.6661C27.4444 19.1174 27.0794 19.5405 26.6817 19.9308C22.1608 24.4926 14.8105 24.4933 10.2738 19.9308L0.90625 10.4954L5.00838 6.37267C5.23831 6.13854 5.51183 5.95272 5.81318 5.82591C6.11453 5.6991 6.43775 5.63381 6.76419 5.63381C7.09063 5.63381 7.41384 5.6991 7.71519 5.82591C8.01654 5.95272 8.29007 6.13854 8.52 6.37267L16.1416 14.0381C16.449 14.3486 16.8138 14.595 17.2154 14.763C17.617 14.9311 18.0474 15.0176 18.482 15.0176C18.9167 15.0176 19.3471 14.9311 19.7487 14.763C20.1502 14.595 20.5151 14.3486 20.8225 14.0381ZM26.6817 3.41934L36.0565 12.8554L31.9576 16.9908C31.4898 17.4589 30.858 17.7215 30.1995 17.7215C29.5411 17.7215 28.9093 17.4589 28.4414 16.9908L20.8225 9.31408C20.1994 8.69142 19.3584 8.34218 18.482 8.34218C17.6057 8.34218 16.7647 8.69142 16.1416 9.31408C15.7305 9.72905 15.4345 10.2458 15.283 10.8126L9.19178 4.68411C9.5237 4.23825 9.88522 3.81569 10.2738 3.41934C14.8105 -1.13978 22.1608 -1.13978 26.6817 3.41934Z" fill="white" fill-opacity="0.8"/>
<path fill-rule="evenodd" clip-rule="evenodd" d="M134.322 23.8812V8.3179H136.936V9.07279C137.75 8.40332 138.702 8.12719 139.744 8.12719C142.72 8.12719 145.094 10.4859 145.094 13.4273C145.094 16.3608 142.72 18.7512 139.744 18.7512C138.702 18.7512 137.751 18.4744 136.936 17.8176V23.8818L134.322 23.8812ZM129.962 18.4738V17.8162C129.16 18.4738 128.201 18.7499 127.165 18.7499C124.189 18.7499 121.811 16.3601 121.811 13.4266C121.811 10.4852 124.189 8.12653 127.166 8.12653C128.188 8.12653 129.143 8.40266 129.962 9.07213V8.31724H132.579V18.4738H129.962ZM115.613 18.4738L113.347 11.993L111.164 18.4738H108.448L104.854 8.3179H107.786L109.824 14.9907L112.203 8.3179H114.497L116.829 14.9907L118.894 8.3179H121.84L118.213 18.4744H115.612L115.613 18.4738ZM98.0262 15.3092C98.9576 16.125 100.082 16.3601 100.804 16.3601C101.739 16.3601 102.035 15.976 102.035 15.6165C102.035 14.0974 96.9153 15.0337 96.9153 11.3778C96.9153 9.51844 98.2373 8.12653 100.481 8.12653C101.38 8.12653 103.01 8.33843 104.16 9.41183L102.777 11.2918C101.885 10.6759 101.057 10.5276 100.503 10.5276C99.6326 10.5276 99.4629 10.909 99.4629 11.1659C99.4629 12.5996 104.518 11.9083 104.518 15.5317C104.518 17.3891 103.178 18.7499 100.635 18.7499C98.7596 18.7499 97.555 18.0281 96.6414 17.3262L98.0262 15.3092ZM95.0284 18.495C95.0284 18.495 94.2656 18.7499 93.0144 18.7499C91.043 18.7499 90.0166 17.4534 90.0166 15.4569V10.8454H88.4234V8.3179H90.0166V4.87721H92.6356V8.31724H95.3096V10.8454H92.6356V14.9033C92.6356 15.6165 92.825 16.2734 93.7603 16.2734C94.4183 16.2734 95.0284 16.1674 95.0284 16.1674V18.495ZM80.2525 14.2676C80.5488 15.5105 81.545 16.38 83.0543 16.38C83.9752 16.38 84.9484 16.0403 85.5383 15.2456L87.3229 16.6786C86.4093 17.9858 84.7931 18.7499 83.074 18.7499C80.0349 18.7499 77.6971 16.4674 77.6971 13.4902C77.6971 10.6124 79.7203 8.12653 82.9285 8.12653C85.8955 8.12653 88.0019 10.57 88.0019 13.4266C88.0019 13.716 87.9823 14.012 87.939 14.2676H80.2525ZM75.0447 18.4738L71.0586 13.9491V18.4738H68.4455V2.65625H71.0586V12.2592L74.7079 8.31724H78.0622L73.6501 12.9605L78.4928 18.4738H75.0447ZM67.3871 16.2535C66.4446 17.7533 64.7478 18.7499 62.817 18.7499C59.8389 18.7499 57.4598 16.3601 57.4598 13.4266C57.4598 10.4852 59.8389 8.12653 62.817 8.12653C64.7255 8.12653 66.3896 9.09332 67.3438 10.5488L65.1102 11.8447C64.8501 11.4753 64.506 11.1744 64.1068 10.9673C63.7076 10.7603 63.2651 10.6531 62.8163 10.6547C61.2932 10.6547 60.0375 11.9294 60.0375 13.4266C60.0375 14.947 61.2932 16.2316 62.8163 16.2316C63.8125 16.2316 64.6829 15.7218 65.1758 14.9258L67.3871 16.2535ZM53.6303 18.4738V8.3179H56.2506V18.4744H53.631L53.6303 18.4738ZM53.2941 4.9613C53.2941 4.02697 54.0085 3.31446 54.9522 3.31446C55.8836 3.31446 56.5868 4.0263 56.5868 4.9613C56.5874 5.90558 55.8842 6.62934 54.9529 6.62934C54.0091 6.62934 53.2941 5.90558 53.2941 4.9613ZM51.2093 18.4956C51.2093 18.4956 50.451 18.7506 49.1952 18.7506C47.2225 18.7506 46.1961 17.454 46.1961 15.4575V10.8461H44.6035V8.3179H46.1961V4.87721H48.8164V8.31724H51.4904V10.8454H48.8164V14.9033C48.8164 15.6165 49.0039 16.2734 49.9398 16.2734C50.5919 16.2734 51.2093 16.1674 51.2093 16.1674V18.4956ZM136.936 13.5558C137.002 15.0126 138.234 16.2323 139.744 16.2323C141.273 16.2323 142.52 14.9477 142.52 13.4273C142.52 11.9308 141.273 10.6554 139.744 10.6554C138.234 10.6554 137.002 11.8877 136.936 13.3213V13.5564V13.5558ZM127.165 10.6554C125.638 10.6554 124.385 11.9301 124.385 13.4273C124.385 14.9477 125.637 16.2323 127.165 16.2323C128.718 16.2323 129.962 14.9477 129.962 13.4273C129.962 11.9308 128.718 10.6554 127.165 10.6554ZM85.3699 12.3453C85.2224 11.3143 84.1561 10.5283 82.9056 10.5283C81.6918 10.5283 80.7165 11.25 80.3377 12.3453H85.3699Z" fill="white" fill-opacity="0.8"/>
</svg>
