<svg width="116" height="25" viewBox="0 0 116 25" fill="none" xmlns="http://www.w3.org/2000/svg">
<g opacity="0.8" clip-path="url(#clip0_65_547)">
<path d="M114.895 1.3457H1.33008V23.8697H114.895V1.3457Z" fill="white"/>
<path d="M8.17188 6.88672H11.854V14.8434H17.0209V18.0285H8.17188V6.88672Z" fill="#636363"/>
<path d="M22.0215 6.88672H26.1431L28.2812 13.1367L30.4192 6.88672H34.4696L30.0035 18.1007H26.4876L22.0215 6.88672Z" fill="#636363"/>
<path d="M34.6125 6.88672H43.996V9.9396H38.2234V11.0694H43.6041V13.7617H38.2234V14.9757H44.0673V18.0285H34.6006V6.88672H34.6125Z" fill="#636363"/>
<path d="M48.4258 6.88672H51.8704L55.7901 11.8026V6.88672H59.4366V18.0165H56.1702L52.0842 12.8843V18.0165H48.4377V6.88672H48.4258Z" fill="#010101"/>
<path d="M63.8914 6.80273H67.5379L72.1703 18.0167H68.1793L67.5973 16.5263H63.7488L63.1787 18.0167H59.2471L63.8914 6.80273ZM66.6945 13.8821L65.6849 11.1777L64.6753 13.8821H66.6945Z" fill="#010101"/>
<path d="M72.7759 10.0358H69.5332V6.88672H79.6888V10.0358H76.4462V18.0165H72.764V10.0358H72.7759Z" fill="#010101"/>
<path d="M80.2471 6.88672H83.9292V18.0165H80.2471V6.88672Z" fill="#010101"/>
<path d="M84.6416 12.4878V12.4518C84.6416 9.2186 87.2666 6.64648 90.6637 6.64648C94.0608 6.64648 96.6502 9.19456 96.6502 12.4157V12.4518C96.6502 15.6849 94.0252 18.2571 90.6281 18.2571C87.231 18.2571 84.6416 15.709 84.6416 12.4878ZM92.9443 12.4878V12.4518C92.9443 11.1297 92.0534 9.93975 90.6281 9.93975C89.2265 9.93975 88.3475 11.1176 88.3475 12.4157V12.4518C88.3475 13.7739 89.2384 14.9638 90.6637 14.9638C92.0653 14.9638 92.9443 13.7859 92.9443 12.4878Z" fill="#010101"/>
<path d="M97.0312 6.88672H100.476L104.396 11.8026V6.88672H108.042V18.0165H104.764L100.678 12.8843V18.0165H97.0312V6.88672Z" fill="#010101"/>
<path d="M116 25H0V0H116V25ZM2.43498 22.524H113.565V2.46394H2.43498V22.524Z" fill="#636363"/>
<path d="M23.3402 4.62777C23.3402 4.62777 23.1026 4.20709 23.0551 4.12296C23.0076 4.03882 22.9363 4.09892 22.9363 4.09892C22.9363 4.09892 22.6988 4.27921 22.5681 4.36334C22.4375 4.44748 22.4493 4.55565 22.4493 4.60373C22.4493 4.66382 22.4137 4.98834 22.4137 4.98834C22.4018 5.06046 22.3662 5.12055 22.3424 5.15661L20.2282 6.81527L19.9669 6.87536L19.3136 7.19988L19.3492 6.75517C19.3967 6.77921 19.468 6.85132 19.5155 6.86334C19.5749 6.87536 19.6699 6.85132 19.6699 6.85132C19.6699 6.85132 19.6343 6.76719 19.6343 6.71911C19.6343 6.67104 19.6462 6.5869 19.6462 6.5869C19.6462 6.5869 19.7412 6.647 19.8243 6.647C19.8837 6.647 19.9431 6.62296 19.9787 6.59892C20.0144 6.57488 20.05 6.5268 20.05 6.5268C20.05 6.5268 19.9312 6.45469 19.8837 6.40661C19.86 6.37055 19.8124 6.32248 19.8362 6.32248C19.8956 6.32248 19.9906 6.23834 19.9906 6.23834C19.9906 6.23834 19.9312 6.20229 19.8718 6.15421C19.8124 6.10613 19.7887 6.07007 19.7649 6.00998C19.7412 5.94988 19.7293 5.9018 19.7293 5.9018C19.7293 5.9018 19.7649 5.94988 19.8481 5.94988C19.9193 5.94988 19.9906 5.9018 19.9906 5.9018C19.9906 5.9018 19.9312 5.86575 19.8956 5.82969C19.86 5.78161 19.8243 5.73354 19.8006 5.67344C19.7768 5.5893 19.7649 5.54123 19.7412 5.48113C19.7293 5.44507 19.7293 5.397 19.7055 5.31286C19.6818 5.12055 19.5986 5.03642 19.5986 5.03642C19.3492 4.69988 18.7791 4.61575 18.7791 4.61575C18.494 4.55565 18.197 4.94027 18.0783 5.32488C17.8882 5.9619 17.9476 6.5869 17.9476 6.5869C17.9476 6.5869 17.9595 6.70709 18.0545 6.76719C18.1139 6.80325 18.3633 6.86334 18.3633 6.86334L18.3396 7.38017L17.7338 7.42825C17.7338 7.42825 17.2824 7.1518 16.9023 6.92344L15.2276 5.66142C15.2276 5.66142 15.1563 5.61334 15.1444 5.48113C15.1444 5.48113 15.1088 5.15661 15.1088 5.09652C15.1088 5.03642 15.1207 4.94027 14.99 4.85613C14.8593 4.772 14.6218 4.59171 14.6218 4.59171C14.6218 4.59171 14.5386 4.51959 14.4911 4.60373C14.4436 4.68786 14.2061 5.10854 14.2061 5.10854L14.3248 5.5893C14.3248 5.5893 14.3723 5.68546 14.4555 5.76959L14.5624 5.87777L15.18 6.44267H15.1919L16.2134 7.36815L16.5104 7.65661C16.5104 7.65661 16.5341 7.69267 16.5341 7.75277C16.5341 7.81286 16.5341 7.98113 16.5341 7.98113C16.5341 7.98113 16.5341 8.02921 16.5579 8.06527C16.5935 8.10132 17.1399 8.54604 17.1399 8.54604C17.1399 8.54604 17.1755 8.58209 17.1755 8.65421L17.2706 11.9715C17.2706 11.9715 17.2706 12.0196 17.3181 12.0196L17.4962 12.0917L17.9001 15.7215L18.6722 18.1254L17.4487 18.7263C17.4487 18.7263 17.4012 18.7504 17.3775 18.7984C17.3775 18.7984 17.3062 18.9427 17.3062 18.9667C17.3062 19.0148 17.3418 19.0268 17.3418 19.0268H19.1592L18.981 19.5076L18.9335 19.6398C18.9335 19.6398 18.8741 19.8802 18.9691 19.9162C19.076 19.9523 19.3967 19.9643 19.5393 19.9523C19.7174 19.9403 20.0381 19.9162 20.0975 19.8682C20.145 19.8201 20.1688 19.5917 19.9075 18.1254L19.7531 12.4523L20.2163 8.89459C20.2638 8.49796 20.3113 8.4619 20.3113 8.4619C20.3113 8.4619 20.8102 8.0893 20.8577 8.04123C20.9052 7.99315 20.8933 7.92104 20.8933 7.92104V7.5244C20.8933 7.45229 20.9171 7.39219 20.9171 7.39219L21.3209 6.99555L21.4397 6.87536L22.7225 5.62536L22.9482 5.36094L23.0551 5.25277C23.1264 5.16863 23.1739 5.07248 23.1739 5.07248C23.1739 5.07248 23.2689 4.83209 23.3046 4.75998C23.3758 4.7119 23.3402 4.62777 23.3402 4.62777Z" fill="#010101"/>
<path d="M109.835 7.74069C109.835 7.25992 110.215 6.86328 110.702 6.86328C111.189 6.86328 111.569 7.25992 111.569 7.74069C111.569 8.22145 111.189 8.61809 110.702 8.61809C110.203 8.60607 109.835 8.20944 109.835 7.74069ZM111.462 7.72867C111.462 7.29597 111.13 6.94742 110.702 6.94742C110.263 6.94742 109.93 7.29597 109.93 7.72867C109.93 8.16136 110.263 8.4979 110.69 8.4979C111.13 8.50992 111.462 8.16136 111.462 7.72867ZM110.346 7.23588H110.75C110.868 7.23588 110.975 7.27194 111.035 7.33203C111.082 7.38011 111.106 7.45222 111.106 7.53636C111.106 7.68059 111.023 7.77674 110.904 7.82482L111.13 8.16136H110.892L110.69 7.86088H110.536V8.17338H110.346V7.23588ZM110.75 7.69261C110.856 7.69261 110.904 7.63251 110.904 7.5604C110.904 7.47626 110.845 7.42819 110.738 7.42819H110.536V7.69261H110.75Z" fill="#010101"/>
</g>
<defs>
<clipPath id="clip0_65_547">
<rect width="116" height="25" fill="white"/>
</clipPath>
</defs>
</svg>
