<svg width="139" height="36" viewBox="0 0 139 36" fill="none" xmlns="http://www.w3.org/2000/svg">
<path fill-rule="evenodd" clip-rule="evenodd" d="M15.9061 35.076C14.0012 35.076 12.4646 33.4689 12.4646 31.4689C12.4646 29.4814 14.0012 27.8736 15.9054 27.8736C17.8102 27.8736 19.3462 29.4814 19.3462 31.4689C19.3462 33.4682 17.8096 35.076 15.9061 35.076ZM15.9061 26.9881C15.316 26.9852 14.7311 27.099 14.1852 27.323C13.6393 27.547 13.1431 27.8767 12.7253 28.2933C12.3075 28.7098 11.9763 29.2048 11.7507 29.7498C11.5252 30.2949 11.4098 30.8791 11.4111 31.4689C11.4086 32.0596 11.5231 32.6449 11.748 33.191C11.9729 33.7372 12.3039 34.2335 12.7217 34.6511C13.1395 35.0688 13.636 35.3997 14.1824 35.6246C14.7289 35.8495 15.3144 35.964 15.9054 35.9615C16.4964 35.9641 17.0821 35.8496 17.6286 35.6248C18.1751 35.3999 18.6716 35.0691 19.0895 34.6514C19.5074 34.2337 19.8384 33.7374 20.0634 33.1912C20.2884 32.645 20.4029 32.0596 20.4004 31.4689C20.4017 30.8791 20.2863 30.2949 20.0608 29.7498C19.8352 29.2048 19.504 28.7098 19.0862 28.2933C18.6683 27.8767 18.1722 27.547 17.6263 27.323C17.0804 27.099 16.4962 26.9852 15.9061 26.9881ZM42.2203 35.076C40.3155 35.076 38.7789 33.4689 38.7789 31.4689C38.7789 29.4814 40.3155 27.8736 42.2203 27.8736C44.1238 27.8736 45.6604 29.4814 45.6604 31.4689C45.6604 33.4682 44.1238 35.076 42.2203 35.076ZM42.2203 26.9881C41.6302 26.9852 41.0454 27.099 40.4995 27.323C39.9536 27.547 39.4574 27.8767 39.0396 28.2933C38.6218 28.7098 38.2905 29.2048 38.065 29.7498C37.8394 30.2949 37.724 30.8791 37.7254 31.4689C37.7228 32.0596 37.8373 32.645 38.0623 33.1912C38.2873 33.7374 38.6183 34.2337 39.0362 34.6514C39.4541 35.0691 39.9507 35.3999 40.4972 35.6248C41.0437 35.8496 41.6293 35.9641 42.2203 35.9615C42.8113 35.964 43.3969 35.8495 43.9433 35.6246C44.4897 35.3997 44.9862 35.0688 45.404 34.6511C45.8219 34.2335 46.1528 33.7372 46.3777 33.191C46.6027 32.6449 46.7172 32.0596 46.7146 31.4689C46.7159 30.8792 46.6004 30.295 46.3749 29.7501C46.1494 29.2052 45.8182 28.7102 45.4005 28.2937C44.9827 27.8772 44.4867 27.5475 43.9409 27.3234C43.3951 27.0993 42.8104 26.9853 42.2203 26.9881ZM75.5601 35.076C73.6567 35.076 72.1194 33.4689 72.1194 31.4689C72.1194 29.4814 73.656 27.8736 75.5601 27.8736C77.4643 27.8736 79.0016 29.4814 79.0016 31.4689C79.0016 33.4682 77.465 35.076 75.5601 35.076ZM75.5601 26.9881C74.9701 26.9853 74.3853 27.0993 73.8395 27.3234C73.2937 27.5474 72.7976 27.8772 72.3798 28.2937C71.962 28.7101 71.6308 29.2051 71.4051 29.7501C71.1795 30.295 71.064 30.8792 71.0652 31.4689C71.0628 32.0596 71.1774 32.6448 71.4025 33.191C71.6275 33.7371 71.9585 34.2333 72.3764 34.651C72.7943 35.0686 73.2907 35.3995 73.8372 35.6244C74.3836 35.8493 74.9692 35.9639 75.5601 35.9615C76.1511 35.964 76.7367 35.8495 77.2832 35.6246C77.8297 35.3997 78.3262 35.0688 78.7441 34.6512C79.162 34.2335 79.493 33.7373 79.718 33.1911C79.943 32.6449 80.0576 32.0596 80.0551 31.4689C80.0563 30.8792 79.9408 30.295 79.7151 29.7501C79.4895 29.2051 79.1583 28.7101 78.7405 28.2937C78.3227 27.8772 77.8266 27.5474 77.2808 27.3234C76.735 27.0993 76.1502 26.9853 75.5601 26.9881ZM100.233 34.9363V29.4066C100.233 28.5329 100.259 27.5208 100.272 27.141L98.7458 27.1403C99.0434 27.4516 99.1929 28.2375 99.2026 29.343L99.2054 33.5457C99.2054 34.1151 99.1798 35.1134 99.1542 35.81H101.757C102.62 35.81 103.408 35.8356 103.789 35.8612V34.8996C103.408 34.9252 102.62 34.937 101.757 34.937L100.233 34.9363ZM109.701 32.0258L111.009 28.8359L112.317 32.0251L109.701 32.0258ZM111.212 26.9756H110.92L107.923 33.8861C107.651 34.5422 107.347 35.1841 107.01 35.8093H108.177C108.279 35.4683 108.457 35.0255 108.736 34.3551L109.359 32.874H112.672L113.308 34.38C113.548 34.9487 113.752 35.4434 113.878 35.81H115.2C114.854 35.183 114.536 34.5411 114.246 33.8861L111.212 26.9756ZM134.003 34.9619H132.707V27.9884H133.991C135.883 27.9884 137.38 29.5699 137.38 31.4682C137.38 33.3679 135.883 34.9619 134.003 34.9619ZM134.066 27.1396H131.216C131.507 27.444 131.675 28.2202 131.675 29.2711L131.674 33.5443C131.674 34.4133 131.655 35.4178 131.616 35.81H134.067C136.466 35.81 138.434 33.8612 138.434 31.4689C138.434 29.0773 136.466 27.1396 134.067 27.1396M63.4707 31.4558H62.6449V27.9622H63.344C64.6647 27.9622 65.3119 28.7979 65.3119 29.6965C65.3119 30.7474 64.5366 31.4558 63.4707 31.4558ZM66.366 29.6716C66.366 28.2043 65.3119 27.1396 63.3814 27.1396H61.1575C61.4447 27.4405 61.6157 28.1939 61.6157 29.2392L61.617 33.6198C61.617 34.4811 61.6046 35.4185 61.5665 35.81H62.6961C62.6581 35.4185 62.6449 34.4811 62.6449 33.6198V32.2154H63.3309C63.4707 32.2154 63.598 32.2154 63.7503 32.1891C64.4861 33.4551 65.5403 34.8989 66.2518 35.81H67.6597C66.6581 34.8615 65.5777 33.1521 64.6515 32.012C65.5278 31.7353 66.366 31.0255 66.366 29.6716ZM53.3622 31.4558H52.5358V27.9622H53.2349C54.5555 27.9622 55.2027 28.7979 55.2027 29.6965C55.2027 30.7474 54.4282 31.4558 53.3622 31.4558ZM56.2569 29.6716C56.2569 28.2043 55.2027 27.1396 53.2722 27.1396H51.0483C51.3355 27.4405 51.5065 28.1939 51.5065 29.2392L51.5079 33.6198C51.5079 34.4811 51.4954 35.4185 51.4574 35.81H52.587C52.5489 35.4185 52.5358 34.4811 52.5358 33.6198V32.2154H53.2217C53.3615 32.2154 53.4889 32.2154 53.6412 32.1891C54.3769 33.4551 55.4311 34.8989 56.142 35.81H57.5505C56.549 34.8615 55.4685 33.1521 54.5424 32.012C55.4187 31.7353 56.2569 31.0255 56.2569 29.6716ZM33.5177 34.8484V34.847C33.467 34.494 33.4223 34.1402 33.3834 33.7858L32.6469 26.9756H32.3555L29.029 34.2029L25.7411 26.9756H25.474L24.5603 33.5187C24.4966 33.9767 24.4309 34.4458 24.3693 34.8498C24.2945 35.3403 24.1713 35.6288 23.999 35.81H25.3092C25.3217 35.3285 25.3854 34.7343 25.474 33.9878L26.0325 29.4689L28.8386 35.9235H29.0926L31.9368 29.4565L32.368 34.0888C32.4441 34.9363 32.4822 35.4053 32.4822 35.81L33.888 35.8114C33.715 35.6295 33.5924 35.3403 33.5177 34.8484ZM95.3147 27.1396H93.9892C93.8868 27.444 93.7352 27.8611 93.3026 28.7979L90.9796 34.1898L89.5323 30.8864L90.446 28.912C90.8779 27.9877 91.1568 27.4066 91.3333 27.1396H90.2425C90.1027 27.5325 89.9379 27.9372 89.5821 28.7598L89.1004 29.8875L88.6179 28.7979C88.1992 27.8867 88.0601 27.5457 87.9195 27.1396H86.7387C87.0564 27.6342 87.2336 27.9877 87.6406 28.8996L88.6048 31.013L87.2205 34.241L84.7203 28.6464C84.4538 28.0639 84.2247 27.5464 84.0849 27.1396H82.6653C82.8009 27.251 82.9975 27.4461 83.1636 27.7553C83.3436 28.0929 83.5229 28.4609 83.7174 28.8864L87.0322 35.9996H87.1831L89.0367 31.9622L90.8903 35.9996H91.0177L94.2432 28.9251C94.3637 28.6671 94.4647 28.452 94.5561 28.2617C94.6426 28.0846 94.7277 27.9165 94.8136 27.7567C94.9783 27.4474 95.1797 27.2517 95.3154 27.1396M126.712 27.1354L125.329 27.1375C125.342 27.6688 125.367 28.6823 125.367 29.4039V33.7228L120.667 28.1503C120.236 27.6688 120.007 27.4156 119.625 26.9473H119.385C119.409 27.6322 119.434 28.618 119.434 29.3907V33.9767C119.434 34.645 119.409 35.4572 119.385 35.8114H120.465C120.431 35.2046 120.414 34.5969 120.414 33.9892L120.44 29.1638L125.229 34.8373C125.636 35.305 125.851 35.5589 126.168 35.965H126.397C126.359 35.2296 126.359 34.6575 126.359 34.1282V29.325C126.359 28.2299 126.417 27.4454 126.712 27.1354ZM9.08128 28.2755C8.88955 28.0728 8.7615 27.6363 8.6909 27.0559C8.49917 27.0925 8.24791 27.1188 7.89698 27.1361C7.57097 27.152 7.15982 27.1603 6.61162 27.1603H2.47105C2.0427 27.1623 1.61435 27.1543 1.18638 27.1361C0.92047 27.1277 0.655447 27.1011 0.393153 27.0566C0.322552 27.6398 0.192424 28.0763 0 28.2783C0.269254 28.1856 0.654101 28.1282 1.18638 28.0867C1.43556 28.0673 1.71312 28.0514 2.03152 28.0369C2.58111 28.0203 3.62075 28.0126 3.95576 28.0092C3.98067 28.4775 3.99313 29.123 3.99313 29.6419V33.5658C3.99313 34.4257 3.98067 35.4385 3.94261 35.8301H5.08469C5.04731 35.4385 5.03416 34.4257 5.03416 33.5658V29.6412C5.03416 29.1237 5.03416 28.4775 5.04731 28.0085C5.39201 28.012 6.4808 28.0203 7.05045 28.0362C7.36954 28.0521 7.64849 28.0673 7.89698 28.0867C8.42857 28.1282 8.81341 28.1856 9.08197 28.2783L9.08128 28.2755Z" fill="white" fill-opacity="0.8"/>
<path fill-rule="evenodd" clip-rule="evenodd" d="M68.3066 4.24646C68.3066 4.45462 68.4673 4.62335 68.665 4.62335C68.8629 4.62335 69.0237 4.45462 69.0237 4.24625C69.0237 4.03808 68.8629 3.86914 68.665 3.86914C68.4673 3.86914 68.3066 4.0383 68.3066 4.24646Z" fill="white" fill-opacity="0.8"/>
<path fill-rule="evenodd" clip-rule="evenodd" d="M69.9492 4.47598C69.9492 5.04896 69.477 5.51334 68.8947 5.51334C68.3123 5.51334 67.8402 5.04896 67.8402 4.47598C67.8402 3.90321 68.3123 3.43819 68.8947 3.43819C69.4772 3.43819 69.9492 3.90321 69.9492 4.47598ZM66.5957 4.46521C66.5957 4.46521 67.6603 5.66979 68.8955 5.66979C70.1305 5.66979 71.1953 4.46521 71.1953 4.46521C71.1953 4.46521 70.4263 3.25977 68.8955 3.25977C67.3648 3.25977 66.5957 4.46478 66.5957 4.46478" fill="white" fill-opacity="0.8"/>
<path fill-rule="evenodd" clip-rule="evenodd" d="M72.0736 10.659C72.0736 10.659 73.7919 11.0274 73.7919 12.2126C73.7919 14.258 70.8179 15.142 70.8179 15.142C70.8179 15.142 69.0903 14.5864 69.0903 10.1748C69.0903 8.23342 69.3978 7.16826 70.5982 6.39789C71.9041 5.55964 74.3982 4.1956 74.483 2.8725C79.8829 8.47024 72.0736 10.659 72.0736 10.659ZM68.8961 17.4699C68.8006 17.4421 61.5188 15.3232 61.5188 9.51536C61.5188 9.12684 61.5454 8.74499 61.5958 8.37177C61.7592 8.62007 61.947 8.85143 62.1564 9.06241C62.1555 9.0971 62.1546 9.13244 62.1546 9.16756C62.1546 12.8798 65.1731 15.8891 68.8961 15.8904C72.6195 15.8891 75.6375 12.88 75.6375 9.16756C75.6375 9.13244 75.6366 9.0971 75.6358 9.06241C75.8452 8.85143 76.033 8.62007 76.1963 8.37177C76.2468 8.74499 76.2733 9.12684 76.2733 9.51536C76.2733 15.3232 68.9916 17.4421 68.8961 17.4699ZM63.3092 2.87272C63.3941 4.19582 65.8878 5.55986 67.1939 6.39789C68.3946 7.16826 68.7018 8.23342 68.7018 10.1745C68.7018 14.5862 66.9742 15.142 66.9742 15.142C66.9742 15.142 64.0002 14.2585 64.0002 12.2126C64.0002 11.0274 65.7185 10.659 65.7185 10.659C65.7185 10.659 57.9095 8.47024 63.3092 2.87272ZM71.8011 4.46367C71.8011 4.46367 71.6383 4.99377 70.4475 5.77815C69.4816 6.41449 69.1643 6.86033 68.8961 7.65807C68.6279 6.86033 68.3105 6.41449 67.3446 5.77793C66.1538 4.99377 65.9911 4.46367 65.9911 4.46367C65.9911 4.46367 66.7515 2.83889 68.8952 2.83889H68.8969C71.0404 2.83889 71.8011 4.46367 71.8011 4.46367ZM64.631 2.1364C64.9909 2.4245 65.7073 2.44972 66.4919 2.1976C66.5307 2.18445 66.5691 2.17109 66.6083 2.15859C67.4181 1.87221 68.2844 1.29384 68.8961 0.404518C69.5077 1.29384 70.374 1.87221 71.184 2.15859C71.2228 2.17109 71.2617 2.18445 71.3 2.1976C72.0848 2.44972 72.8013 2.4245 73.1609 2.13618C73.154 2.45941 73.3112 3.08282 73.7413 3.61874C73.6054 3.7825 73.4577 3.93606 73.2993 4.07816C72.0755 3.0228 70.5124 2.44313 68.8961 2.44519C67.2796 2.44311 65.7165 3.02279 64.4926 4.07816C64.3343 3.93609 64.1866 3.78261 64.0506 3.61896C64.4808 3.08282 64.6382 2.45941 64.631 2.1364ZM76.4251 8.03884C76.5333 7.8268 76.6178 7.60937 76.6773 7.39194C77.0758 5.92899 76.4361 4.31434 74.7753 2.59259C74.7206 2.5362 74.6508 2.49681 74.5742 2.47915C74.4976 2.46148 74.4176 2.46631 74.3437 2.49303C74.1921 2.5482 74.088 2.68697 74.0778 2.84686C74.0699 2.96818 74.0313 3.09877 73.9618 3.23582C73.6837 2.83501 73.5613 2.3952 73.5666 2.1448C73.568 2.06777 73.5475 1.99192 73.5074 1.92611C73.4673 1.86029 73.4094 1.80722 73.3403 1.77308C73.2847 1.7464 73.2238 1.73255 73.1622 1.73257C73.0684 1.73257 72.9774 1.76403 72.9065 1.82114C72.7931 1.91207 72.5813 1.96207 72.3106 1.96207C72.0357 1.96207 71.7291 1.91035 71.4262 1.81295C71.3894 1.80029 71.3524 1.78808 71.3153 1.77632C70.8294 1.60328 69.9118 1.16605 69.2307 0.175669C69.1933 0.12149 69.1434 0.0771923 69.0851 0.0465907C69.0268 0.015989 68.962 0 68.8962 0C68.8304 0 68.7655 0.015989 68.7072 0.0465907C68.649 0.0771923 68.599 0.12149 68.5617 0.175669C67.8804 1.16605 66.9628 1.60328 66.4768 1.7761C66.4397 1.78794 66.4028 1.80022 66.366 1.81295C66.0631 1.91035 65.7567 1.96207 65.4814 1.96207C65.2108 1.96207 64.9991 1.91207 64.8855 1.82114C64.8129 1.76335 64.7227 1.7321 64.63 1.73257C64.5683 1.73257 64.5066 1.74658 64.4523 1.77308C64.3831 1.80712 64.325 1.86016 64.2848 1.92598C64.2447 1.99181 64.2241 2.06771 64.2255 2.1448C64.2307 2.3952 64.1086 2.83501 63.8301 3.23582C63.7611 3.09877 63.7219 2.96818 63.7143 2.84686C63.7077 2.74413 63.6622 2.64778 63.587 2.57743C63.5118 2.50708 63.4126 2.46804 63.3096 2.46825C63.1997 2.46825 63.0927 2.5135 63.0166 2.59259C61.3558 4.31434 60.7162 5.92899 61.115 7.39194C61.1767 7.61558 61.2611 7.83234 61.3668 8.03884C61.3202 8.07063 61.2807 8.11181 61.2508 8.15976C61.221 8.2077 61.2016 8.26135 61.1937 8.31725C61.14 8.71159 61.1129 9.11455 61.1129 9.51515C61.1129 12.0454 62.4498 14.2942 64.9792 16.0192C66.8528 17.2971 68.7083 17.8369 68.7865 17.8595C68.8583 17.8795 68.9341 17.8795 69.0058 17.8595C69.0836 17.8369 70.9393 17.2971 72.8129 16.0192C75.3419 14.2942 76.6793 12.0454 76.6793 9.51515C76.6793 9.11434 76.6521 8.71159 76.5986 8.31703C76.5907 8.26118 76.5711 8.2076 76.5412 8.15973C76.5113 8.11186 76.4718 8.07055 76.4251 8.03884Z" fill="white" fill-opacity="0.8"/>
</svg>
